inDegrees=no
num_controls=7
num_derivatives=13
num_iterations=119
num_multipliers=7
num_parameters=0
num_slacks=7
num_states=26
objective=5.736141
objective_accelerations=0.805384
objective_balance=0.055554
objective_effort=0.307780
objective_height=4.454451
objective_ligament=0.112972
solver_duration=1331.734563
status=Solve_Succeeded
success=true
DataType=double
version=3
OpenSimVersion=4.4-2022-07-23-0e9fedc
endheader
time	/jointset/ground_pelvis/pelvis_tilt/value	/jointset/ground_pelvis/pelvis_tx/value	/jointset/ground_pelvis/pelvis_ty/value	/jointset/hip_l/hip_flexion_l/value	/jointset/hip_l/hip_adduction_l/value	/jointset/hip_l/hip_rotation_l/value	/jointset/back/lumbar_extension/value	/jointset/patellofemoral_l/patellar_flexion_l/value	/jointset/knee_l/knee_flexion_l/value	/jointset/knee_l/knee_adduction_l/value	/jointset/knee_l/knee_rotation_l/value	/jointset/ankle_l/ankle_angle_l/value	/jointset/subtalar_l/subtalar_angle_l/value	/jointset/ground_pelvis/pelvis_tilt/speed	/jointset/ground_pelvis/pelvis_tx/speed	/jointset/ground_pelvis/pelvis_ty/speed	/jointset/hip_l/hip_flexion_l/speed	/jointset/hip_l/hip_adduction_l/speed	/jointset/hip_l/hip_rotation_l/speed	/jointset/back/lumbar_extension/speed	/jointset/patellofemoral_l/patellar_flexion_l/speed	/jointset/knee_l/knee_flexion_l/speed	/jointset/knee_l/knee_adduction_l/speed	/jointset/knee_l/knee_rotation_l/speed	/jointset/ankle_l/ankle_angle_l/speed	/jointset/subtalar_l/subtalar_angle_l/speed	/forceset/tau_hip_flexion_l	/forceset/tau_hip_adduction_l	/forceset/tau_hip_rotation_l	/forceset/tau_knee_flexion_l	/forceset/tau_ankle_angle_l	/forceset/tau_subtalar_angle_l	/forceset/tau_lumbar_extension	lambda_cid13_p0	lambda_cid13_p1	lambda_cid13_p2	lambda_cid13_p3	lambda_cid13_p4	lambda_cid13_p5	lambda_cid14_p0	/jointset/ground_pelvis/pelvis_tilt/accel	/jointset/ground_pelvis/pelvis_tx/accel	/jointset/ground_pelvis/pelvis_ty/accel	/jointset/hip_l/hip_flexion_l/accel	/jointset/hip_l/hip_adduction_l/accel	/jointset/hip_l/hip_rotation_l/accel	/jointset/back/lumbar_extension/accel	/jointset/patellofemoral_l/patellar_flexion_l/accel	/jointset/knee_l/knee_flexion_l/accel	/jointset/knee_l/knee_adduction_l/accel	/jointset/knee_l/knee_rotation_l/accel	/jointset/ankle_l/ankle_angle_l/accel	/jointset/subtalar_l/subtalar_angle_l/accel	gamma_cid13_p0	gamma_cid13_p1	gamma_cid13_p2	gamma_cid13_p3	gamma_cid13_p4	gamma_cid13_p5	gamma_cid14_p0
1	-0.6284158473596626	-0.1027974433578882	0.5432287102447485	1.995532109058309	-0.4625830880617036	0.02415931016935168	-0.2617949008504412	1.421324556676714	1.421324556676111	-0.06988434947390806	-0.1745315017008151	0.180807706471898	-0.02673036981841223	-0.01547945214012598	0.01111598637450731	0.00442511159383834	-0.007518673472435415	-0.00213819788381571	0.001506071950902757	-2.095285676372967e-05	-0.0004127295537452262	-0.000412729553745483	-0.003950122548963509	-5.47990184006631e-05	0.02247469025903287	0.009960005515442502	-0.382407295963023	0.009023244838457541	0.0005240533931018287	-0.2780083723548928	0.04115461034394812	0.03216476670081934	0.3159092883758051	-27.32551650498259	-9.448090359549136	1.471269603381863	8.517968646782043	-652.9644908773663	-39.48695960413346	-0.7522004564971733	1.737682563199336	0.2470016907447634	2.146762714972002	-7.464824686441233	-0.1336197993907181	-2.411071641422173	-0.02412745396717225	-5.459833085637259	-5.459833085637282	-0.6315104814940293	-0.02604039314236872	-0.423055445328638	-0.3659745927354175	5.22469161581032e-09	1.971907566093403e-08	-1.393505860483326e-08	2.133148726911426e-09	-2.111553922028851e-09	2.771148214557709e-08	2.144272308814708e-09
1.01	-0.6284847987527711	-0.1026739870250007	0.5433801426671788	1.99508505946547	-0.4626100013814395	0.02405286345117711	-0.2617951476623251	1.421047525142523	1.421047525142512	-0.06995275293295521	-0.174531821063818	0.1810114728841528	-0.02664754036588695	0.00169383196765981	0.01357998877072133	0.02585640256416764	-0.08188382085162586	-0.003242618532658204	-0.02279374506560172	-2.710641728642152e-05	-0.05498674038181821	-0.05498674038181553	-0.009728859470182288	-1.221512748658491e-05	0.01827381788502163	0.006605190287196683	-0.3822899586497232	0.009128763313699786	0.0005108608703487443	-0.2778758549144889	0.04102840784845325	0.03218885023004695	0.3158358263855713	-27.35155626993007	-9.458406462393823	1.47795831393911	8.422611908263496	-652.8126920378942	-39.50628513620736	-0.7562296604491314	1.707848396869059	0.2468057096077688	2.14056410335037	-7.421248078993697	-0.09857500465384843	-2.439193116596925	0.01133615811394835	-5.455157098506118	-5.455157098505606	-0.5508038382071434	0.01894389604406032	-0.4193191257125085	-0.3203428556065674	-4.34362394810454e-09	7.035498169841041e-09	2.182017217650268e-08	-4.220856145238394e-10	-1.306691875059628e-08	9.160934265385572e-08	-1.209501931712896e-08
1.02	-0.6283818778923431	-0.1025257494290411	0.5437457383623712	1.993894580735777	-0.4626479032690688	0.0237034672857718	-0.2617954169167181	1.420224959096638	1.420224959097208	-0.07007889346944657	-0.1745318073648859	0.1811730873742077	-0.02659828063919153	0.01889499856747657	0.01607223898892543	0.04725776614593866	-0.1562045008442266	-0.004335911462375225	-0.04708381747541318	-2.544136945591995e-05	-0.1095196318944487	-0.109519631894443	-0.01549753802226648	1.181339684467118e-05	0.01404430581999477	0.00324606034943806	-0.3821726213364146	0.009234281788762816	0.0004976683474736495	-0.277743337474101	0.04090220535290068	0.03221293375902328	0.3157623643953748	-27.38214816747321	-9.467641400592687	1.484150310668128	8.343708036831101	-652.7267178909324	-39.5018008633755	-0.7679638796800605	1.743259061605495	0.2526512551427678	2.14077723726036	-7.455931209123289	-0.1313942555654803	-2.40912272008344	-0.02256373229631508	-5.451609222548815	-5.451609222548821	-0.6294988076670518	-0.0297514664586678	-0.4287833835317519	-0.3668375346377969	-1.337973258556654e-08	-4.553460827592068e-09	5.857856704127129e-08	-2.272813897333107e-09	-2.400042570659021e-08	1.539039502132772e-07	-2.580314319582989e-08
1.03	-0.6281067744988199	-0.1023524039896938	0.5443251129460549	1.991961296814015	-0.462696640031619	0.02311130200976727	-0.2617956450780816	1.418857363080534	1.41885736308128	-0.07026268540165227	-0.1745316840763574	0.1812921561629158	-0.02658264029978898	0.03613264559713762	0.01860586358160325	0.06860369851249111	-0.2304263176099874	-0.005403878396425052	-0.07133888623533492	-1.949198191721562e-05	-0.1639836885419515	-0.1639836885419398	-0.02125902238561678	8.395073065418153e-06	0.009754342656512257	-0.0001173593562052097	-0.3816640407426776	0.009393811792624298	0.0004595371073130786	-0.2775682499873419	0.04094496234755798	0.03230922448105374	0.3154248781750254	-27.33761506844567	-9.529275391709405	1.507703254490567	8.16410512373089	-652.3264097242316	-39.58371275704495	-0.7876252570696541	1.715057683653298	0.2550694322171286	2.129476371586435	-7.401417334530843	-0.09336859680669413	-2.432169932526426	0.01227911311346059	-5.441413483895234	-5.441413483894286	-0.5492159414673632	0.01372239934194826	-0.4313700468614182	-0.3210077454619285	-2.241041054010554e-08	-1.613125024855925e-08	9.53471982742382e-08	-4.116353342809453e-09	-3.493370962306808e-08	2.161821980487308e-07	-3.950584699547732e-08
